<svg id="Layer_1" data-name="Layer 1" xmlns="http://www.w3.org/2000/svg" width="256" height="256" viewBox="0 0 256 256"><title>Artboard 1</title><polygon points="128 18.4 222.9 73.2 222.9 182.8 128 237.6 33.1 182.8 33.1 73.2 128 18.4"/><path d="M74.4,172.5l-4.2-6a2,2,0,0,1,.2-2.1l14.9-17.7H78a1.7,1.7,0,0,1-1.8-1.8V132a1.7,1.7,0,0,1,1.8-1.8H88.4a49.4,49.4,0,0,1-2-13.7,42.6,42.6,0,0,1,85.2,0,45.9,45.9,0,0,1-2,13.7H180a1.7,1.7,0,0,1,1.8,1.8v12.9a1.7,1.7,0,0,1-1.8,1.8h-9.2l14.8,17.7a1.8,1.8,0,0,1,0,2.1l-4.1,6a2,2,0,0,1-2.4.5l-8.6-4.5H85.3L76.7,173A1.9,1.9,0,0,1,74.4,172.5Zm27.3-25.8H89.8L74,165.4l2.5,3.6,30.4-16ZM79.8,133.8v9.3h98.4v-9.3Zm12.4-3.6h73.6a45.2,45.2,0,0,0,2.2-13.7,39,39,0,0,0-78,0C90,121.2,90.4,126,92.2,130.2Zm17.3,25.7-17.1,9h24.4Zm-3.1-9.2,15.1,18.2h13l15.1-18.2Zm40.1,9.2-7.3,9h24.4Zm19.7-9.2H154.3l-5.4,6.3,30.6,16,2.5-3.4Z" fill="#fff"/></svg>