<svg id="Layer_1" data-name="Layer 1" xmlns="http://www.w3.org/2000/svg" width="256" height="256" viewBox="0 0 256 256"><title>Artboard 3</title><polygon points="128 18.4 222.9 73.2 222.9 182.8 128 237.6 33.1 182.8 33.1 73.2 128 18.4"/><path d="M76,168.5a1.7,1.7,0,0,1-1.8-1.8V144.9H50.4a1.8,1.8,0,1,1,0-3.6H63.9V129.6a1.7,1.7,0,0,1,1.8-1.8h7a57.2,57.2,0,0,1,55.1-43.7c.2-.2.4-.2.7,0a57,57,0,0,1,54.8,43.7h7a1.7,1.7,0,0,1,1.8,1.8v11.7h13.5a1.8,1.8,0,1,1,0,3.6H181.8v21.8a1.7,1.7,0,0,1-1.8,1.8Zm-8.5-37.1v9.9h121v-9.9Zm56.9-43.5c-23,1.4-42.3,18.1-47.9,39.9H95.8Zm-46.6,57v20h48.4v-20Zm48.4-53.4-25.9,36.3h25.9Zm3.6-3.8v40.1h49.7A53.6,53.6,0,0,0,129.8,87.7Zm0,57.2v20h8.1v-20Zm11.7,0v20h36.7v-20Z" fill="#fff"/></svg>