<svg id="Layer_1" data-name="Layer 1" xmlns="http://www.w3.org/2000/svg" width="256" height="256" viewBox="0 0 256 256"><title>Artboard 2</title><polygon points="128 18.4 222.9 73.2 222.9 182.8 128 237.6 33.1 182.8 33.1 73.2 128 18.4"/><path d="M72.9,168.5a1.8,1.8,0,0,1,0-3.6h9V153.6h-9a1.7,1.7,0,0,1-1.8-1.8V116.3a1.7,1.7,0,0,1,1.8-1.8H84.8c.9-25.6,20-39.6,43.2-39.6s42.3,14,43.2,39.6h11.9a1.7,1.7,0,0,1,1.8,1.8v35.5a1.7,1.7,0,0,1-1.8,1.8h-9v11.3h9a1.8,1.8,0,1,1,0,3.6Zm1.8-50.4V150H181.3V118.1Zm10.8,35.5v11.3H97V153.6Zm2.9-39.1h79.2c-.9-23.2-18.5-36-39.6-36S89.3,91.3,88.4,114.5Zm12.2,39.1v11.3h18V153.6Zm21.6,0v11.3h11.6V153.6ZM171,141.3H127.1a1.8,1.8,0,1,1,0-3.6H171a1.8,1.8,0,0,1,0,3.6Zm-33.6,12.3v11.3h18V153.6Zm21.6,0v11.3h11.5V153.6Z" fill="#fff"/></svg>